<?xml version="1.0" standalone="no"?>
<!DOCTYPE svg PUBLIC "-//W3C//DTD SVG 20010904//EN"
 "http://www.w3.org/TR/2001/REC-SVG-20010904/DTD/svg10.dtd">
<svg version="1.0" xmlns="http://www.w3.org/2000/svg"
 width="512.000000pt" height="512.000000pt" viewBox="0 0 512.000000 512.000000"
 preserveAspectRatio="xMidYMid meet">
<metadata>
Created by potrace 1.14, written by Peter Selinger 2001-2017
</metadata>
<g transform="translate(0.000000,512.000000) scale(0.100000,-0.100000)"
fill="#000000" stroke="none">
<path d="M1090 4781 c-190 -41 -365 -137 -496 -272 -134 -139 -216 -295 -255
-487 -19 -89 -19 -149 -17 -1495 l3 -1402 22 -76 c103 -364 365 -619 723 -706
71 -17 157 -18 1495 -18 1323 0 1425 1 1489 18 366 94 638 368 723 727 17 70
18 169 18 1490 0 1321 -1 1420 -18 1490 -89 379 -395 669 -774 735 -73 13
-284 15 -1457 14 -1283 0 -1376 -2 -1456 -18z m2438 -760 c72 -37 112 -102
112 -181 0 -79 -40 -144 -112 -181 -35 -18 -68 -19 -671 -19 -672 0 -710 -2
-807 -48 -71 -33 -169 -131 -203 -203 -111 -236 3 -510 251 -602 54 -20 82
-22 497 -27 491 -7 489 -7 645 -81 222 -105 392 -310 457 -549 25 -91 25 -329
0 -420 -65 -238 -233 -441 -452 -546 -171 -82 -123 -78 -912 -82 -637 -2 -706
-1 -735 14 -158 80 -159 288 -1 368 28 14 102 16 660 16 387 0 653 4 692 11
93 15 167 53 237 123 229 229 143 604 -164 719 -54 20 -81 22 -497 27 -491 7
-489 7 -645 81 -222 105 -392 310 -457 549 -25 91 -25 329 0 420 63 231 228
435 436 539 180 90 166 89 949 90 653 1 684 0 720 -18z"/>
</g>
</svg>
